<svg xmlns="http://www.w3.org/2000/svg" viewBox="0 0 1600 1000">
  <rect width="1600" height="1000" fill="#F6F4FF"/>
  <defs>
    <linearGradient id="dGrad" x1="0" y1="0" x2="1" y2="1">
      <stop offset="0%" stop-color="#5533FF"/>
      <stop offset="30%" stop-color="#0A0714"/>
      <stop offset="68%" stop-color="#0A0714"/>
      <stop offset="100%" stop-color="#19D7FF"/>
    </linearGradient>
    <linearGradient id="wGrad" x1="0" y1="0" x2="1" y2="0">
      <stop offset="0%" stop-color="#0A0714"/>
      <stop offset="62%" stop-color="#0A0714"/>
      <stop offset="83%" stop-color="#5533FF"/>
      <stop offset="100%" stop-color="#19D7FF"/>
    </linearGradient>
    <radialGradient id="bg1" cx="18%" cy="16%" r="85%">
      <stop offset="0%" stop-color="#5533FF"/>
      <stop offset="35%" stop-color="#16102A"/>
      <stop offset="72%" stop-color="#0A0714"/>
      <stop offset="100%" stop-color="#2563FF"/>
    </radialGradient>
    <radialGradient id="bg2" cx="88%" cy="88%" r="60%">
      <stop offset="0%" stop-color="#19D7FF" stop-opacity="0.95"/>
      <stop offset="65%" stop-color="#2563FF" stop-opacity="0.25"/>
      <stop offset="100%" stop-color="#0A0714" stop-opacity="0"/>
    </radialGradient>
  </defs>
  <g transform="translate(150 110) scale(1.1)">
    <path d="M20 30 H115
C165 30 195 62 195 110
C195 158 165 190 115 190
H20 V140 H110
C130 140 142 129 142 110
C142 91 130 80 110 80
H20 Z" fill="url(#dGrad)"/>
    <path d="M220 30 H390 V78 L292 142 H390 V190 H220 V142 L318 78 H220 Z" fill="#0A0714"/>
    <path d="M415 190 V30 H465 L565 128 V30 H620 V190 H570 L470 92 V190 Z" fill="#0A0714"/>
    <path d="M650 110
C650 60 684 30 742 30
C800 30 834 60 834 110
C834 160 800 190 742 190
C684 190 650 160 650 110 Z
M704 110
C704 87 719 76 742 76
C765 76 780 87 780 110
C780 133 765 144 742 144
C719 144 704 133 704 110 Z" fill="#0A0714" fill-rule="evenodd"/>
    <path d="M858 30 H914 L949 125 L986 30 H1038 L1075 125 L1112 30 H1168
L1108 190 H1056 L1012 82 L968 190 H916 Z" fill="url(#wGrad)"/>
  </g>
  <g transform="translate(170 500)">
    <rect x="0" y="0" width="300" height="300" rx="70" fill="url(#bg1)"/>
    <rect x="0" y="0" width="300" height="300" rx="70" fill="url(#bg2)"/>
    <g transform="translate(22 48) scale(1.2)">
      <path d="M20 30 H115
C165 30 195 62 195 110
C195 158 165 190 115 190
H20 V140 H110
C130 140 142 129 142 110
C142 91 130 80 110 80
H20 Z" fill="#F6F4FF"/>
    </g>
  </g>
  <g transform="translate(560 560) scale(.7)" fill="#0A0714">
    <path d="M20 30 H115
C165 30 195 62 195 110
C195 158 165 190 115 190
H20 V140 H110
C130 140 142 129 142 110
C142 91 130 80 110 80
H20 Z"/>
    <path d="M220 30 H390 V78 L292 142 H390 V190 H220 V142 L318 78 H220 Z"/>
    <path d="M415 190 V30 H465 L565 128 V30 H620 V190 H570 L470 92 V190 Z"/>
    <path d="M650 110
C650 60 684 30 742 30
C800 30 834 60 834 110
C834 160 800 190 742 190
C684 190 650 160 650 110 Z
M704 110
C704 87 719 76 742 76
C765 76 780 87 780 110
C780 133 765 144 742 144
C719 144 704 133 704 110 Z" fill-rule="evenodd"/>
    <path d="M858 30 H914 L949 125 L986 30 H1038 L1075 125 L1112 30 H1168
L1108 190 H1056 L1012 82 L968 190 H916 Z"/>
  </g>
  <circle cx="660" cy="830" r="38" fill="#0A0714"/>
  <circle cx="770" cy="830" r="38" fill="#5533FF"/>
  <circle cx="880" cy="830" r="38" fill="#2563FF"/>
  <circle cx="990" cy="830" r="38" fill="#19D7FF"/>
  <circle cx="1100" cy="830" r="38" fill="#F6F4FF" stroke="#DCD9E8"/>
</svg>